#N canvas 1951 24 987 680 10;
#X obj 37 453 print OBS;
#X msg 40 53 connect localhost 8001;
#X obj 68 199 r toObs;
#X obj 291 563 s toObs;
#X obj 40 304 netsend -u -b;
#X obj 298 79 oscformat previewscene;
#X msg 298 36 list Szene\ 4;
#X obj 455 86 oscformat programscene;
#X obj 645 427 tgl 20 0 empty empty empty 0 -10 0 12 #fcfcfc #000000 #000000 0 1;
#X obj 645 477 oscformat enable_scene_item;
#X msg 455 64 list Szene\ 2;
#X obj 618 99 oscformat stream;
#X obj 618 71 tgl 18 0 empty empty empty 0 -9 0 10 #fcfcfc #000000 #000000 0 1;
#X msg 37 364 listen 9001;
#X obj 37 397 netreceive -u -b;
#X obj 37 421 oscparse;
#X obj 631 135 tgl 18 0 empty empty empty 0 -9 0 10 #fcfcfc #000000 #000000 0 1;
#X obj 629 157 oscformat recording;
#X obj 659 224 oscformat transition_duration;
#X floatatom 659 199 5 0 0 0 - - - 0;
#X obj 649 275 bng 18 250 50 0 empty empty empty 0 -9 0 10 #fcfcfc #000000 #000000;
#X obj 649 298 oscformat get_scene_list;
#X obj 640 372 oscformat get_scene_item_list;
#X msg 640 345 list livefeed;
#X msg 645 452 list livefeed 3 \$1;
#X connect 1 0 4 0;
#X connect 2 0 4 0;
#X connect 5 0 3 0;
#X connect 6 0 5 0;
#X connect 7 0 3 0;
#X connect 8 0 24 0;
#X connect 9 0 3 0;
#X connect 10 0 7 0;
#X connect 11 0 3 0;
#X connect 12 0 11 0;
#X connect 13 0 14 0;
#X connect 14 0 15 0;
#X connect 15 0 0 0;
#X connect 16 0 17 0;
#X connect 17 0 3 0;
#X connect 18 0 3 0;
#X connect 19 0 18 0;
#X connect 20 0 21 0;
#X connect 21 0 3 0;
#X connect 22 0 3 0;
#X connect 23 0 22 0;
#X connect 24 0 9 0;
